<mxfile host="Electron" modified="2024-03-28T09:39:26.619Z" agent="Mozilla/5.0 (Macintosh; Intel Mac OS X 10_15_7) AppleWebKit/537.36 (KHTML, like Gecko) draw.io/24.1.0 Chrome/120.0.6099.109 Electron/28.1.0 Safari/537.36" etag="7f3DiI7Ng6D8GWxXeLda" version="24.1.0" type="device">
  <diagram name="Page-1" id="95cnKtvzo_szJ51asuck">
    <mxGraphModel dx="741" dy="443" grid="1" gridSize="10" guides="1" tooltips="1" connect="1" arrows="1" fold="1" page="1" pageScale="1" pageWidth="1920" pageHeight="1080" math="0" shadow="0">
      <root>
        <mxCell id="0" />
        <mxCell id="1" parent="0" />
        <mxCell id="rL5AhmuF6cbK-rhVGE2t-21" value="" style="rounded=0;whiteSpace=wrap;html=1;fillStyle=hatch;fillColor=#B3B3B3;fontFamily=Computer Modern;" parent="1" vertex="1">
          <mxGeometry x="40" y="90" width="120" height="30" as="geometry" />
        </mxCell>
        <mxCell id="rL5AhmuF6cbK-rhVGE2t-22" value="" style="rounded=0;whiteSpace=wrap;html=1;" parent="1" vertex="1">
          <mxGeometry x="160" y="90" width="360" height="30" as="geometry" />
        </mxCell>
        <mxCell id="rL5AhmuF6cbK-rhVGE2t-23" value="" style="shape=crossbar;whiteSpace=wrap;html=1;rounded=1;" parent="1" vertex="1">
          <mxGeometry x="40" y="130" width="120" height="10" as="geometry" />
        </mxCell>
        <mxCell id="rL5AhmuF6cbK-rhVGE2t-24" value="" style="shape=crossbar;whiteSpace=wrap;html=1;rounded=1;" parent="1" vertex="1">
          <mxGeometry x="160" y="130" width="360" height="10" as="geometry" />
        </mxCell>
        <mxCell id="rL5AhmuF6cbK-rhVGE2t-26" value="address" style="text;html=1;strokeColor=none;fillColor=none;align=center;verticalAlign=middle;whiteSpace=wrap;rounded=0;fontFamily=Computer Modern;fontSize=14;" parent="1" vertex="1">
          <mxGeometry x="310" y="90" width="60" height="30" as="geometry" />
        </mxCell>
        <mxCell id="rL5AhmuF6cbK-rhVGE2t-27" value="16 bit" style="text;html=1;strokeColor=none;fillColor=none;align=center;verticalAlign=middle;whiteSpace=wrap;rounded=0;fontFamily=Computer Modern;fontSize=14;" parent="1" vertex="1">
          <mxGeometry x="40" y="130" width="120" height="30" as="geometry" />
        </mxCell>
        <mxCell id="rL5AhmuF6cbK-rhVGE2t-28" value="48 bit" style="text;html=1;strokeColor=none;fillColor=none;align=center;verticalAlign=middle;whiteSpace=wrap;rounded=0;fontFamily=Computer Modern;fontSize=14;" parent="1" vertex="1">
          <mxGeometry x="310" y="130" width="60" height="30" as="geometry" />
        </mxCell>
        <mxCell id="2nknXjrb5gbH7j1WtRy_-1" value="" style="rounded=0;whiteSpace=wrap;html=1;fillStyle=hatch;fillColor=#B3B3B3;fontFamily=Computer Modern;" parent="1" vertex="1">
          <mxGeometry x="40" y="190" width="120" height="30" as="geometry" />
        </mxCell>
        <mxCell id="2nknXjrb5gbH7j1WtRy_-2" value="address" style="rounded=0;whiteSpace=wrap;html=1;fontSize=14;fontFamily=Computer Modern;" parent="1" vertex="1">
          <mxGeometry x="160" y="190" width="360" height="30" as="geometry" />
        </mxCell>
        <mxCell id="2nknXjrb5gbH7j1WtRy_-3" value="" style="shape=crossbar;whiteSpace=wrap;html=1;rounded=1;" parent="1" vertex="1">
          <mxGeometry x="70" y="230" width="30" height="10" as="geometry" />
        </mxCell>
        <mxCell id="2nknXjrb5gbH7j1WtRy_-4" value="" style="shape=crossbar;whiteSpace=wrap;html=1;rounded=1;" parent="1" vertex="1">
          <mxGeometry x="160" y="230" width="360" height="10" as="geometry" />
        </mxCell>
        <mxCell id="2nknXjrb5gbH7j1WtRy_-5" value="4 bit" style="text;html=1;strokeColor=none;fillColor=none;align=center;verticalAlign=middle;whiteSpace=wrap;rounded=0;fontFamily=Computer Modern;fontSize=14;" parent="1" vertex="1">
          <mxGeometry x="70" y="230" width="30" height="30" as="geometry" />
        </mxCell>
        <mxCell id="2nknXjrb5gbH7j1WtRy_-6" value="48 bit" style="text;html=1;strokeColor=none;fillColor=none;align=center;verticalAlign=middle;whiteSpace=wrap;rounded=0;fontFamily=Computer Modern;fontSize=14;" parent="1" vertex="1">
          <mxGeometry x="310" y="230" width="60" height="30" as="geometry" />
        </mxCell>
        <mxCell id="2nknXjrb5gbH7j1WtRy_-7" value="tag" style="rounded=0;whiteSpace=wrap;html=1;fontSize=14;fontFamily=Computer Modern;" parent="1" vertex="1">
          <mxGeometry x="70" y="190" width="30" height="30" as="geometry" />
        </mxCell>
        <mxCell id="2nknXjrb5gbH7j1WtRy_-8" value="MTE" style="text;html=1;strokeColor=none;fillColor=none;align=left;verticalAlign=middle;whiteSpace=wrap;rounded=0;fontSize=14;fontFamily=Computer Modern;fontStyle=1" parent="1" vertex="1">
          <mxGeometry x="40" y="160" width="60" height="30" as="geometry" />
        </mxCell>
        <mxCell id="2nknXjrb5gbH7j1WtRy_-9" value="No extension" style="text;html=1;strokeColor=none;fillColor=none;align=left;verticalAlign=middle;whiteSpace=wrap;rounded=0;fontSize=14;fontFamily=Computer Modern;fontStyle=1" parent="1" vertex="1">
          <mxGeometry x="40" y="60" width="100" height="30" as="geometry" />
        </mxCell>
        <mxCell id="2nknXjrb5gbH7j1WtRy_-10" value="" style="rounded=0;whiteSpace=wrap;html=1;fillStyle=hatch;fillColor=#B3B3B3;fontFamily=Computer Modern;" parent="1" vertex="1">
          <mxGeometry x="100" y="290" width="6" height="30" as="geometry" />
        </mxCell>
        <mxCell id="2nknXjrb5gbH7j1WtRy_-11" value="address" style="rounded=0;whiteSpace=wrap;html=1;fontSize=14;fontFamily=Computer Modern;" parent="1" vertex="1">
          <mxGeometry x="160" y="290" width="360" height="30" as="geometry" />
        </mxCell>
        <mxCell id="2nknXjrb5gbH7j1WtRy_-12" value="" style="shape=crossbar;whiteSpace=wrap;html=1;rounded=1;" parent="1" vertex="1">
          <mxGeometry x="40" y="330" width="60" height="10" as="geometry" />
        </mxCell>
        <mxCell id="2nknXjrb5gbH7j1WtRy_-13" value="" style="shape=crossbar;whiteSpace=wrap;html=1;rounded=1;" parent="1" vertex="1">
          <mxGeometry x="160" y="330" width="360" height="10" as="geometry" />
        </mxCell>
        <mxCell id="2nknXjrb5gbH7j1WtRy_-14" value="8 bit" style="text;html=1;strokeColor=none;fillColor=none;align=center;verticalAlign=middle;whiteSpace=wrap;rounded=0;fontFamily=Computer Modern;fontSize=14;" parent="1" vertex="1">
          <mxGeometry x="40" y="330" width="60" height="30" as="geometry" />
        </mxCell>
        <mxCell id="2nknXjrb5gbH7j1WtRy_-15" value="48 bit" style="text;html=1;strokeColor=none;fillColor=none;align=center;verticalAlign=middle;whiteSpace=wrap;rounded=0;fontFamily=Computer Modern;fontSize=14;" parent="1" vertex="1">
          <mxGeometry x="310" y="330" width="60" height="30" as="geometry" />
        </mxCell>
        <mxCell id="2nknXjrb5gbH7j1WtRy_-16" value="signature" style="rounded=0;whiteSpace=wrap;html=1;fontSize=14;fontFamily=Computer Modern;" parent="1" vertex="1">
          <mxGeometry x="40" y="290" width="60" height="30" as="geometry" />
        </mxCell>
        <mxCell id="2nknXjrb5gbH7j1WtRy_-17" value="signature" style="rounded=0;whiteSpace=wrap;html=1;fontSize=14;fontFamily=Computer Modern;" parent="1" vertex="1">
          <mxGeometry x="106" y="290" width="54" height="30" as="geometry" />
        </mxCell>
        <mxCell id="2nknXjrb5gbH7j1WtRy_-18" value="" style="shape=crossbar;whiteSpace=wrap;html=1;rounded=1;" parent="1" vertex="1">
          <mxGeometry x="106" y="330" width="54" height="10" as="geometry" />
        </mxCell>
        <mxCell id="2nknXjrb5gbH7j1WtRy_-19" value="7 bit" style="text;html=1;strokeColor=none;fillColor=none;align=center;verticalAlign=middle;whiteSpace=wrap;rounded=0;fontFamily=Computer Modern;fontSize=14;" parent="1" vertex="1">
          <mxGeometry x="106" y="330" width="54" height="30" as="geometry" />
        </mxCell>
        <mxCell id="2nknXjrb5gbH7j1WtRy_-20" value="PAC" style="text;html=1;strokeColor=none;fillColor=none;align=left;verticalAlign=middle;whiteSpace=wrap;rounded=0;fontSize=14;fontFamily=Computer Modern;fontStyle=1" parent="1" vertex="1">
          <mxGeometry x="40" y="260" width="60" height="30" as="geometry" />
        </mxCell>
        <mxCell id="2nknXjrb5gbH7j1WtRy_-21" value="" style="rounded=0;whiteSpace=wrap;html=1;fillStyle=hatch;fillColor=#B3B3B3;fontFamily=Computer Modern;" parent="1" vertex="1">
          <mxGeometry x="100" y="400" width="6" height="30" as="geometry" />
        </mxCell>
        <mxCell id="2nknXjrb5gbH7j1WtRy_-22" value="address" style="rounded=0;whiteSpace=wrap;html=1;fontSize=14;fontFamily=Computer Modern;" parent="1" vertex="1">
          <mxGeometry x="160" y="400" width="360" height="30" as="geometry" />
        </mxCell>
        <mxCell id="2nknXjrb5gbH7j1WtRy_-23" value="" style="shape=crossbar;whiteSpace=wrap;html=1;rounded=1;" parent="1" vertex="1">
          <mxGeometry x="40" y="440" width="30" height="10" as="geometry" />
        </mxCell>
        <mxCell id="2nknXjrb5gbH7j1WtRy_-24" value="" style="shape=crossbar;whiteSpace=wrap;html=1;rounded=1;" parent="1" vertex="1">
          <mxGeometry x="160" y="440" width="360" height="10" as="geometry" />
        </mxCell>
        <mxCell id="2nknXjrb5gbH7j1WtRy_-25" value="4&amp;nbsp;bit" style="text;html=1;strokeColor=none;fillColor=none;align=center;verticalAlign=middle;whiteSpace=wrap;rounded=0;fontFamily=Computer Modern;fontSize=14;" parent="1" vertex="1">
          <mxGeometry x="40" y="440" width="30" height="30" as="geometry" />
        </mxCell>
        <mxCell id="2nknXjrb5gbH7j1WtRy_-26" value="48 bit" style="text;html=1;strokeColor=none;fillColor=none;align=center;verticalAlign=middle;whiteSpace=wrap;rounded=0;fontFamily=Computer Modern;fontSize=14;" parent="1" vertex="1">
          <mxGeometry x="310" y="440" width="60" height="30" as="geometry" />
        </mxCell>
        <mxCell id="2nknXjrb5gbH7j1WtRy_-27" value="sig" style="rounded=0;whiteSpace=wrap;html=1;fontSize=14;fontFamily=Computer Modern;" parent="1" vertex="1">
          <mxGeometry x="40" y="400" width="30" height="30" as="geometry" />
        </mxCell>
        <mxCell id="2nknXjrb5gbH7j1WtRy_-28" value="sig" style="rounded=0;whiteSpace=wrap;html=1;fontSize=14;fontFamily=Computer Modern;" parent="1" vertex="1">
          <mxGeometry x="106" y="400" width="54" height="30" as="geometry" />
        </mxCell>
        <mxCell id="2nknXjrb5gbH7j1WtRy_-29" value="" style="shape=crossbar;whiteSpace=wrap;html=1;rounded=1;" parent="1" vertex="1">
          <mxGeometry x="106" y="440" width="54" height="10" as="geometry" />
        </mxCell>
        <mxCell id="2nknXjrb5gbH7j1WtRy_-30" value="7 bit" style="text;html=1;strokeColor=none;fillColor=none;align=center;verticalAlign=middle;whiteSpace=wrap;rounded=0;fontFamily=Computer Modern;fontSize=14;" parent="1" vertex="1">
          <mxGeometry x="106" y="440" width="54" height="30" as="geometry" />
        </mxCell>
        <mxCell id="2nknXjrb5gbH7j1WtRy_-31" value="" style="shape=crossbar;whiteSpace=wrap;html=1;rounded=1;" parent="1" vertex="1">
          <mxGeometry x="70" y="440" width="30" height="10" as="geometry" />
        </mxCell>
        <mxCell id="2nknXjrb5gbH7j1WtRy_-32" value="4&amp;nbsp;bit" style="text;html=1;strokeColor=none;fillColor=none;align=center;verticalAlign=middle;whiteSpace=wrap;rounded=0;fontFamily=Computer Modern;fontSize=14;" parent="1" vertex="1">
          <mxGeometry x="70" y="440" width="30" height="30" as="geometry" />
        </mxCell>
        <mxCell id="2nknXjrb5gbH7j1WtRy_-33" value="tag" style="rounded=0;whiteSpace=wrap;html=1;fontSize=14;fontFamily=Computer Modern;" parent="1" vertex="1">
          <mxGeometry x="70" y="400" width="30" height="30" as="geometry" />
        </mxCell>
        <mxCell id="2nknXjrb5gbH7j1WtRy_-34" value="MTE + PAC" style="text;html=1;strokeColor=none;fillColor=none;align=left;verticalAlign=middle;whiteSpace=wrap;rounded=0;fontSize=14;fontFamily=Computer Modern;fontStyle=1" parent="1" vertex="1">
          <mxGeometry x="40" y="370" width="130" height="30" as="geometry" />
        </mxCell>
      </root>
    </mxGraphModel>
  </diagram>
</mxfile>
